<?xml version="1.0" encoding="utf-8"?><svg width="160" height="48" viewBox="0 0 160 48" xmlns="http://www.w3.org/2000/svg">
    <g fill="none" fill-rule="evenodd">
        <rect stroke="#0B4460" stroke-width="2" fill="#FFF" x="1" y="1" width="158" height="46" rx="23" />
        <g fill="#000" fill-rule="nonzero">
            <path d="M35.128 19.475c.772 0 2.243-1.03 3.76-.876.634.018 2.44.242 3.604 1.883-.094.054-2.15 1.222-2.128 3.622.025 2.877 2.604 3.828 2.636 3.839-.015.067-.404 1.372-1.371 2.698-.808 1.167-1.655 2.308-2.999 2.329-1.306.029-1.745-.743-3.243-.743-1.512 0-1.98.722-3.232.772-1.28.045-2.259-1.246-3.096-2.403-1.673-2.361-2.976-6.655-1.23-9.577.847-1.433 2.39-2.355 4.04-2.38 1.282-.025 2.471.836 3.259.836zM38.904 14c.128 1.124-.333 2.231-1.007 3.045-.703.802-1.828 1.415-2.923 1.336-.144-1.082.411-2.232 1.033-2.933.702-.796 1.922-1.406 2.897-1.448zM75.335 19.502c1.073 0 1.97.422 2.686 1.267.719.846 1.077 1.958 1.077 3.337 0 1.54-.418 2.758-1.254 3.652-.75.796-1.68 1.194-2.79 1.194-1.198 0-2.059-.429-2.583-1.286h-.038v4.772H70.41V22.67c0-.968-.025-1.962-.075-2.982h1.778l.113 1.436h.038c.674-1.082 1.697-1.622 3.07-1.622zm10.466 0c1.072 0 1.968.422 2.687 1.267.716.846 1.075 1.958 1.075 3.337 0 1.54-.418 2.758-1.255 3.652-.749.796-1.679 1.194-2.789 1.194-1.198 0-2.06-.429-2.583-1.286h-.038v4.772h-2.021V22.67c0-.968-.026-1.962-.075-2.982h1.778l.113 1.436h.038c.673-1.082 1.696-1.622 3.07-1.622zm27.816.001c1.335 0 2.41.441 3.22 1.324.776.856 1.163 1.961 1.163 3.316 0 1.392-.4 2.536-1.199 3.43-.837.92-1.948 1.379-3.333 1.379-1.335 0-2.398-.441-3.19-1.323-.794-.882-1.19-1.995-1.19-3.336 0-1.404.408-2.553 1.226-3.447.816-.895 1.918-1.343 3.303-1.343zM97.913 16c1.148 0 2.102.2 2.864.597l-.506 1.64c-.71-.385-1.515-.577-2.415-.577-.71 0-1.266.174-1.665.522-.336.31-.505.689-.505 1.137 0 .497.193.907.58 1.23.336.298.948.621 1.835.97 1.086.435 1.883.944 2.396 1.527.511.582.766 1.31.766 2.178 0 1.068-.373 1.938-1.12 2.609-.823.734-1.967 1.1-3.438 1.1-1.357 0-2.446-.26-3.27-.783l.469-1.677a5.56 5.56 0 0 0 2.922.802c.761 0 1.354-.172 1.78-.513.423-.342.635-.8.635-1.373 0-.51-.175-.94-.525-1.288-.348-.348-.929-.672-1.74-.971-2.21-.82-3.313-2.022-3.313-3.602 0-1.033.387-1.88 1.161-2.539.772-.66 1.802-.989 3.09-.989zm7.805 1.431v2.255h2.229V21.2h-2.229v4.398c0 1.118.393 1.677 1.18 1.677.361 0 .66-.031.898-.093l.056 1.528c-.398.148-.923.223-1.572.223-.799 0-1.423-.243-1.873-.727-.448-.485-.674-1.299-.674-2.442v-4.566h-1.327v-1.51h1.327v-1.66l1.985-.596zm24.113 2.054c1.311 0 2.304.485 2.978 1.453.534.77.802 1.721.802 2.85a4.7 4.7 0 0 1-.074.914h-6.064c.023.895.316 1.58.88 2.051.51.422 1.171.634 1.983.634.898 0 1.717-.143 2.454-.429l.317 1.397c-.861.374-1.878.56-3.05.56-1.411 0-2.519-.414-3.325-1.24-.804-.826-1.207-1.935-1.207-3.326 0-1.366.375-2.504 1.125-3.41.785-.97 1.846-1.454 3.18-1.454zm-65.26-3.3 4.081 12.562H66.5l-1.18-3.69h-4.1l-1.123 3.69H58l4.062-12.563h2.509zm59.494 3.317c.187 0 .356.013.505.037v1.92a3.525 3.525 0 0 0-.637-.056c-.71 0-1.26.267-1.648.802-.336.472-.505 1.069-.505 1.789v4.753h-2.02l.018-6.206c0-1.044-.025-1.995-.075-2.852h1.76l.074 1.733h.056c.214-.595.55-1.075 1.011-1.435.45-.323.937-.485 1.461-.485zm-10.52 1.473c-.812 0-1.43.361-1.853 1.084-.363.598-.543 1.326-.543 2.187 0 .835.18 1.552.543 2.148.437.723 1.047 1.084 1.835 1.084.772 0 1.378-.368 1.815-1.102.373-.61.56-1.333.56-2.168 0-.835-.179-1.552-.542-2.15-.424-.723-1.03-1.083-1.815-1.083zm-28.4.13c-.5 0-.952.165-1.358.493-.406.33-.67.762-.795 1.296-.061.25-.094.453-.094.614v1.51c0 .659.203 1.215.607 1.669.406.453.933.68 1.584.68.761 0 1.354-.292 1.777-.875.425-.585.638-1.355.638-2.312 0-.882-.2-1.609-.6-2.18-.438-.597-1.023-.896-1.76-.896zm-10.465 0c-.499 0-.952.165-1.357.493-.406.33-.671.762-.795 1.296-.063.25-.094.453-.094.614v1.51c0 .659.203 1.215.608 1.669.406.454.933.68 1.582.68.761 0 1.354-.292 1.778-.875.424-.585.637-1.355.637-2.312 0-.882-.2-1.609-.6-2.18-.437-.597-1.023-.896-1.76-.896zM63.26 17.861h-.038a91.005 91.005 0 0 1-.599 2.366l-1.048 3.28h3.388l-1.067-3.28c-.112-.335-.324-1.124-.636-2.366zm66.419 3.018c-.66 0-1.198.273-1.609.82-.337.436-.537.958-.598 1.566h4.21c.014-.596-.118-1.111-.392-1.546-.35-.56-.888-.84-1.611-.84z" />
        </g>
    </g>
</svg>
