<?xml version="1.0" encoding="utf-8"?><svg width="160" height="48" viewBox="0 0 160 48" xmlns="http://www.w3.org/2000/svg">
    <g fill="none" fill-rule="evenodd">
        <rect stroke="#0B4460" stroke-width="2" fill="#FFF" x="1" y="1" width="158" height="46" rx="23" />
        <g fill="#000" fill-rule="nonzero">
            <g stroke="#FFF" stroke-width=".54">
                <path d="M22.29 16.248c-.184.199-.29.502-.29.9v14.09c0 .397.106.7.297.89l.05.044 7.896-7.894V24.1l-7.903-7.896-.05.043z" />
                <path d="m32.87 26.917-2.634-2.633V24.1l2.634-2.633.057.035 3.115 1.77c.892.502.892 1.331 0 1.84l-3.115 1.77-.057.035z" />
                <path d="m32.927 26.882-2.69-2.69-7.946 7.943c.29.312.779.347 1.324.043l9.312-5.296M32.927 21.502l-9.312-5.289c-.545-.311-1.035-.268-1.324.043l7.945 7.936 2.691-2.69z" />
            </g>
            <path d="M74.752 20.016c-2.503 0-4.532 1.899-4.532 4.518 0 2.596 2.042 4.518 4.532 4.518 2.504 0 4.533-1.912 4.533-4.518 0-2.62-2.03-4.518-4.533-4.518zm0 7.246c-1.37 0-2.548-1.134-2.548-2.738 0-1.63 1.181-2.739 2.548-2.739 1.37 0 2.549 1.11 2.549 2.739.002 1.615-1.18 2.738-2.549 2.738zm-9.888-7.246c-2.504 0-4.533 1.899-4.533 4.518 0 2.596 2.043 4.518 4.533 4.518 2.503 0 4.532-1.912 4.532-4.518 0-2.62-2.032-4.518-4.532-4.518zm0 7.246c-1.37 0-2.549-1.134-2.549-2.738 0-1.63 1.182-2.739 2.549-2.739 1.37 0 2.548 1.11 2.548 2.739 0 1.615-1.179 2.738-2.548 2.738zm-11.767-5.866v1.912h4.59c-.14 1.073-.495 1.864-1.038 2.407-.673.673-1.711 1.404-3.542 1.404-2.82 0-5.028-2.278-5.028-5.098s2.207-5.098 5.028-5.098c1.523 0 2.633.6 3.457 1.369l1.357-1.356C56.776 15.84 55.253 15 53.118 15 49.248 15 46 18.152 46 22.01c0 3.87 3.245 7.01 7.118 7.01 2.09 0 3.658-.683 4.898-1.97 1.263-1.263 1.663-3.046 1.663-4.484 0-.447-.034-.85-.105-1.191h-6.48c.003-.003.003.02.003.02zm48.13 1.488c-.38-1.014-1.524-2.879-3.87-2.879-2.327 0-4.26 1.83-4.26 4.519 0 2.537 1.912 4.518 4.484 4.518 2.067 0 3.27-1.264 3.765-2.005l-1.534-1.028c-.509.755-1.216 1.25-2.22 1.25-1.015 0-1.724-.46-2.196-1.369l6.042-2.503c0 .003-.212-.503-.212-.503zm-6.162 1.51c-.048-1.745 1.356-2.633 2.36-2.633.792 0 1.452.39 1.677.956l-4.037 1.677zm-4.909 4.378h1.984V15.498h-1.984v13.274zm-3.258-7.752h-.072c-.447-.533-1.298-1.015-2.384-1.015-2.254 0-4.33 1.984-4.33 4.532 0 2.537 2.065 4.497 4.33 4.497 1.073 0 1.937-.485 2.384-1.028h.072v.649c0 1.724-.922 2.654-2.408 2.654-1.216 0-1.97-.874-2.278-1.605l-1.725.72c.496 1.192 1.818 2.667 4 2.667 2.326 0 4.297-1.37 4.297-4.709v-8.106H86.91v.744h-.011zm-2.278 6.242c-1.37 0-2.514-1.144-2.514-2.725 0-1.595 1.144-2.75 2.514-2.75 1.356 0 2.408 1.169 2.408 2.75.013 1.58-1.05 2.725-2.408 2.725zm25.897-11.764h-4.745v13.274h1.984v-5.027h2.763c2.196 0 4.355-1.592 4.355-4.118 0-2.527-2.15-4.13-4.357-4.13zm.058 6.393h-2.821v-4.555h2.82c1.487 0 2.327 1.226 2.327 2.277 0 1.041-.85 2.278-2.326 2.278zm12.251-1.899c-1.44 0-2.927.638-3.541 2.029l1.759.73c.379-.73 1.073-.98 1.806-.98 1.028 0 2.067.615 2.09 1.712v.14c-.355-.201-1.133-.508-2.066-.508-1.9 0-3.825 1.038-3.825 2.984 0 1.783 1.558 2.927 3.293 2.927 1.332 0 2.066-.601 2.524-1.298h.072v1.028h1.912V23.67c0-2.368-1.759-3.679-4.024-3.679zm-.249 7.27c-.649 0-1.557-.318-1.557-1.134 0-1.027 1.134-1.416 2.1-1.416.875 0 1.288.188 1.807.447a2.388 2.388 0 0 1-2.35 2.103zm11.25-6.986-2.277 5.757h-.072l-2.36-5.757h-2.135l3.542 8.048-2.019 4.473h2.066l5.45-12.521h-2.194zm-17.859 8.496h1.984V15.498h-1.984v13.274z" />
        </g>
    </g>
</svg>
